<?xml version="1.0" encoding="utf-8"?>
<!-- Generator: Adobe Illustrator 19.2.0, SVG Export Plug-In . SVG Version: 6.00 Build 0)  -->
<svg version="1.1" id="Layer_1" xmlns="http://www.w3.org/2000/svg" xmlns:xlink="http://www.w3.org/1999/xlink" x="0px" y="0px"
	 viewBox="0 0 514 128" style="enable-background:new 0 0 514 128;" xml:space="preserve">
<g>
	<path d="M369,20c0.7,0.3,1.5,0.8,2.2,0.9c21.6,4.6,35.2,22.3,34.7,45.4c-0.4,21.6-15.3,39.1-36.2,42.8c-0.9,0.2-1.8,0.6-2.8,0.9
		c-3,0-6,0-9,0c-2.2-0.6-4.4-1.2-6.7-1.8c-19.7-5.2-32.7-23.1-32.2-44.5c0.5-21.2,14.7-38.7,34.6-42.7c1.1-0.2,2.2-0.7,3.3-1
		C361,20,365,20,369,20z M399.5,64.7c-0.1-1.3-0.2-3.6-0.4-5.9c-1.8-15.7-13.4-28.7-28.6-32.1c-15.1-3.4-30.2,2.9-38.5,15.9
		c-9.3,14.7-8.1,35.2,3,48.5c6.8,8.1,15.5,12.4,26,12.9C382.5,104.9,399,88.5,399.5,64.7z"/>
	<path d="M500,108c-1.5,0-3,0-5,0c-19.8-25.1-39.8-50.4-59.8-75.7c-0.3,0.1-0.7,0.2-1,0.3c0,25,0,49.9,0,75.2
		c-2.2,0.1-3.8,0.2-5.8,0.3c0-28.8,0-57.3,0-86.2c1.8,0,3.6,0,5.9,0c19.3,24.4,38.9,49.2,58.5,73.9c0.3-0.1,0.7-0.2,1-0.4
		c0-24.3,0-48.7,0-73.4c2.4,0,4.3,0,6.2,0C500,50.7,500,79.3,500,108z"/>
	<path d="M17,107c1-1.7,2.2-3.2,3-5c12.4-26.9,24.8-53.8,37.3-80.8c2.1,0,4,0,6.3,0c13.2,28.6,26.4,57.3,39.9,86.5
		c-2.5,0-4.3,0-6.8,0C84.8,81.4,72.8,54.8,60.4,27.2C47.9,54.7,35.8,81.3,23.7,108c-2.4,0-4.6,0-6.7,0C17,107.7,17,107.3,17,107z"/>
	<path d="M122.4,107.9c0-28.9,0-57.3,0-86.3c3.4,0,6.5,0,9.7,0c10.2,0.1,20.3,0,30.5,0.4c7.4,0.3,14.1,2.9,19,8.7
		c6.5,7.7,5.6,20.1-1.8,27.3c-2.1,2-4.7,3.6-7.5,5.7c1.5,0.6,2.9,1.3,4.3,1.8c8.6,3.5,14.2,9.5,14.2,19.2c0,9.7-5.1,16.4-13.8,20.1
		c-3.5,1.5-7.3,2.8-11,2.9C151.5,108.1,137.2,107.9,122.4,107.9z M128.7,101.9c13,0,25.4,0.3,37.9-0.2c3.6-0.1,7.5-1.9,10.6-3.9
		c10.2-6.6,9.3-21.6-1.7-26.8c-3.7-1.7-7.9-2.9-11.9-3.1c-10.8-0.5-21.6-0.4-32.4-0.5c-0.8,0-1.5,0.4-2.4,0.6
		C128.7,79.4,128.7,90.5,128.7,101.9z M128.9,28.2c0,11.1,0,22.1,0,32.9c11.7,0,23,0,34.3,0c1.4,0,2.9-0.6,4.3-1.1
		c8.1-2.9,12.3-9.1,11.8-17.6c-0.4-7.2-5.4-13.4-13.8-14C153.4,27.5,141.3,28.2,128.9,28.2z"/>
	<path d="M239.4,107.9c-2.5,0-4.2,0-6.3,0c0-26.8,0-53.3,0-80.4c-10.1,0-19.7,0-29.8,0c-0.1-2-0.2-3.6-0.3-5.5c22.1,0,43.9,0,66,0
		c0,1.6,0,3.1,0,5.2c-9.8,0-19.4,0-29.6,0C239.4,54.3,239.4,80.9,239.4,107.9z"/>
	<path d="M295.8,107.9c-2,0-3.6,0-5.5,0c0-28.6,0-57.1,0-85.9c1.8,0,3.5,0,5.5,0C295.8,50.6,295.8,79,295.8,107.9z"/>
</g>
</svg>
