<?xml version="1.0" encoding="utf-8"?>
<!-- Generator: Adobe Illustrator 20.0.0, SVG Export Plug-In . SVG Version: 6.00 Build 0)  -->
<svg version="1.1" id="Layer_1" xmlns="http://www.w3.org/2000/svg" xmlns:xlink="http://www.w3.org/1999/xlink" x="0px" y="0px"
	 viewBox="0 0 99.8 80" style="enable-background:new 0 0 99.8 80;" xml:space="preserve">
<style type="text/css">
	.st0{enable-background:new    ;}
	.st1{fill:#090708;}
</style>
<g id="Arrow">
	<g id="_x39_-interface_-_arrow_right_bottom" class="st0">
		<g id="_x39_-interface_-_arrow_right_bottom_1_">
			<g>
				<path class="st1" d="M96.9,36.9l-35-35c-1.3-1.3-3.5-1.2-4.9,0.2c-1.4,1.4-1.4,3.6-0.2,4.9l29,29L4.6,36c-1.9,0-3.5,1.5-3.5,3.5
					c0,1.9,1.5,3.5,3.5,3.5l81.3,0l-29,29c-1.3,1.3-1.2,3.5,0.2,4.9c1.4,1.4,3.6,1.5,4.9,0.2l35-35c0,0,0,0,0,0c0,0,0,0,0,0l0.1-0.1
					c0.6-0.6,0.8-1.3,0.9-2c0-0.1,0-0.2,0.1-0.3c0-0.1,0-0.2-0.1-0.3c-0.1-0.8-0.3-1.5-0.9-2L96.9,36.9
					C96.9,36.9,96.9,36.9,96.9,36.9C96.9,36.9,96.9,36.9,96.9,36.9z"/>
			</g>
		</g>
	</g>
	<g id="Layer_1_1_">
	</g>
</g>
</svg>
