<?xml version="1.0" encoding="utf-8"?>
<!-- Generator: Adobe Illustrator 20.0.0, SVG Export Plug-In . SVG Version: 6.00 Build 0)  -->
<svg version="1.1" id="Layer_1" xmlns="http://www.w3.org/2000/svg" xmlns:xlink="http://www.w3.org/1999/xlink" x="0px" y="0px"
	 viewBox="0 0 99.8 80" style="enable-background:new 0 0 99.8 80;" xml:space="preserve">
<style type="text/css">
	.st0{enable-background:new    ;}
	.st1{fill:#090708;}
</style>
<g id="Arrow">
	<g id="_x39_-interface_-_arrow_right_bottom" class="st0">
		<g id="_x39_-interface_-_arrow_right_bottom_1_">
			<g>
				<path class="st1" d="M51.5,74.8l26.1-26.1c1-1,0.9-2.6-0.1-3.6c-1-1-2.7-1.1-3.6-0.1L52.2,66.6l0-60.8c0-1.4-1.2-2.6-2.6-2.6
					c-1.4,0-2.6,1.2-2.6,2.6l0,60.8L25.3,44.9c-1-1-2.6-0.9-3.6,0.1c-1,1-1.1,2.7-0.1,3.6l26.1,26.1c0,0,0,0,0,0c0,0,0,0,0,0
					l0.1,0.1c0.4,0.4,1,0.6,1.5,0.6c0.1,0,0.2,0,0.2,0c0.1,0,0.2,0,0.2,0c0.6,0,1.1-0.2,1.5-0.7L51.5,74.8
					C51.4,74.8,51.5,74.8,51.5,74.8C51.5,74.8,51.5,74.8,51.5,74.8z"/>
			</g>
		</g>
	</g>
	<g id="Layer_1_1_">
	</g>
</g>
</svg>
