<?xml version="1.0" encoding="utf-8"?>
<!-- Generator: Adobe Illustrator 20.0.0, SVG Export Plug-In . SVG Version: 6.00 Build 0)  -->
<svg version="1.1" id="Layer_1" xmlns="http://www.w3.org/2000/svg" xmlns:xlink="http://www.w3.org/1999/xlink" x="0px" y="0px"
	 viewBox="0 0 400 400" style="enable-background:new 0 0 400 400;" xml:space="preserve">
<style type="text/css">
	.st0{fill:#090708;}
</style>
<g id="gear">
	<g>
		<path class="st0" d="M275.3,168.6c7.1,0,12.9-5.8,12.9-12.9v-17.1c0-7.1-5.8-12.9-12.9-12.9h-8.9c-7.1,0-14.3-4.7-16.2-10.4
			c-1.9-5.7-5-23.5,0-28.6l6.3-6.3c5-5,5-13.2,0-18.2l-12.1-12.1c-5-5-13.2-5-18.2,0l-6.3,6.3c-5,5-13.4,6.8-18.6,4.1
			c-5.3-2.7-20.3-13.2-20.3-20.3v-8.9c0-7.1-5.8-12.9-12.9-12.9H151c-7.1,0-12.9,5.8-12.9,12.9v8.9c0,7.1-4.7,14.3-10.4,16.2
			c-5.7,1.9-23.5,5-28.5-0.1L93,50.2c-5-5-13.2-5-18.2,0l-12,12.1c-5,5-5,13.2,0,18.2l6.3,6.3c5,5,6.8,13.4,4.1,18.6
			c-2.7,5.3-13.2,20.3-20.3,20.3h-8.9c-7.1,0-12.9,5.8-12.9,12.9v17.1c0,7.1,5.8,12.9,12.9,12.9h8.9c7.1,0,14.3,4.7,16.2,10.4
			c1.9,5.7,5,23.5-0.1,28.5l-6.3,6.3c-5,5-5,13.2,0,18.2l12.1,12.1c5,5,13.2,5,18.2,0l6.3-6.3c5-5,13.4-6.8,18.6-4.1
			c5.3,2.7,20.3,13.2,20.3,20.3v8.9c0,7.1,5.8,12.9,12.8,12.9h17.1c7.1,0,12.9-5.8,12.9-12.9V254c0-7.1,4.7-14.3,10.4-16.2
			c5.7-1.9,23.5-5,28.6,0.1l6.3,6.3c5,5,13.2,5,18.2,0l12.1-12.1c5-5,5-13.2,0-18.2l-6.3-6.3c-5-5-6.8-13.4-4.1-18.6
			s13.2-20.3,20.3-20.3L275.3,168.6L275.3,168.6z M159.6,202.9c-30.7,0-55.7-25-55.7-55.7c0-30.8,25-55.7,55.7-55.7
			c30.8,0,55.7,24.9,55.7,55.7C215.4,177.9,190.4,202.9,159.6,202.9z M356.6,324.9c4.8,0,8.6-4.8,8.6-10.7s-3.9-10.7-8.6-10.7
			c-4.8,0-9.4-2.4-10.3-5.2c-0.9-2.9-1.8-12.5,1.6-15.8c3.4-3.4,2.7-9.5-1.4-13.7c-4.2-4.2-10.3-4.8-13.7-1.4
			c-3.4,3.4-8.3,5-10.9,3.7c-2.6-1.4-10.1-7.6-10.1-12.4c0-4.8-4.8-8.6-10.7-8.6c-5.9,0-10.7,3.9-10.7,8.6c0,4.8-2.4,9.4-5.2,10.3
			c-2.9,0.9-12.5,1.7-15.8-1.6c-3.4-3.4-9.5-2.7-13.7,1.4c-4.2,4.2-4.8,10.4-1.5,13.7c3.3,3.3,5,8.3,3.6,10.9
			c-1.4,2.6-7.6,10.1-12.4,10.1c-4.8,0-8.6,4.8-8.6,10.7c0,5.9,3.9,10.7,8.6,10.7c4.8,0,9.4,2.4,10.4,5.2c0.9,2.9,1.7,12.5-1.6,15.8
			c-3.3,3.4-2.7,9.6,1.5,13.7c4.2,4.2,10.4,4.8,13.7,1.4c3.4-3.4,8.3-5,10.9-3.7c2.6,1.4,10.1,7.6,10.1,12.4c0,4.8,4.8,8.6,10.7,8.6
			c5.9,0,10.7-3.9,10.7-8.6c0-4.8,2.4-9.4,5.2-10.3c2.9-0.9,12.5-1.7,15.8,1.6c3.4,3.3,9.5,2.7,13.7-1.4c4.2-4.2,4.8-10.3,1.4-13.7
			c-3.4-3.4-5-8.3-3.6-10.9C345.7,332.4,351.8,324.9,356.6,324.9z M322.5,314.2c0,11.8-9.6,21.4-21.4,21.4s-21.4-9.6-21.4-21.4
			c0-11.8,9.6-21.4,21.4-21.4C312.9,292.8,322.5,302.4,322.5,314.2z"/>
	</g>
</g>
</svg>
