<?xml version="1.0" encoding="utf-8"?>
<!-- Generator: Adobe Illustrator 20.0.0, SVG Export Plug-In . SVG Version: 6.00 Build 0)  -->
<svg version="1.1" id="Layer_1" xmlns="http://www.w3.org/2000/svg" xmlns:xlink="http://www.w3.org/1999/xlink" x="0px" y="0px"
	 viewBox="0 0 400 400" style="enable-background:new 0 0 400 400;" xml:space="preserve">
<style type="text/css">
	.st0{fill:#070102;}
	.st1{fill:#FFFFFF;}
</style>
<g id="iphone">
	<g>
		<path class="st0" d="M295.1,20.6H126.9c-12.4,0-22.4,10-22.4,22.5V357c0,12.4,10,22.4,22.4,22.4h168.2c12.4,0,22.4-10,22.4-22.4
			V43.1C317.5,30.7,307.4,20.6,295.1,20.6z M211,368.2c-9.3,0-16.8-7.5-16.8-16.9c0-9.3,7.5-16.8,16.8-16.8
			c9.3,0,16.8,7.5,16.8,16.8C227.8,360.7,220.3,368.2,211,368.2z M295.1,323.3H126.9V65.5h168.2V323.3z"/>
		<rect x="126.9" y="65.5" class="st1" width="168.2" height="257.9"/>
		<path class="st1" d="M211,334.5c-9.3,0-16.8,7.5-16.8,16.8c0,9.3,7.5,16.9,16.8,16.9c9.3,0,16.8-7.5,16.8-16.9
			C227.8,342.1,220.3,334.5,211,334.5z"/>
	</g>
</g>
</svg>
