<?xml version="1.0" encoding="utf-8"?>
<!-- Generator: Adobe Illustrator 20.0.0, SVG Export Plug-In . SVG Version: 6.00 Build 0)  -->
<svg version="1.1" id="Layer_1" xmlns="http://www.w3.org/2000/svg" xmlns:xlink="http://www.w3.org/1999/xlink" x="0px" y="0px"
	 viewBox="0 0 400 400" style="enable-background:new 0 0 400 400;" xml:space="preserve">
<style type="text/css">
	.st0{fill:#090708;}
</style>
<g id="pacman">
	<g>
		<g>
			<g>
				<path class="st0" d="M193.9,198.6L294.6,97.9c2-2,3.1-4.7,3-7.6c-0.1-2.8-1.4-5.5-3.5-7.4c-29.8-26.1-68-40.4-107.6-40.4
					c-43.6,0-84.5,16.9-115.2,47.8c-63.7,63.7-63.7,167.3,0,231c30.8,30.8,71.8,47.8,115.5,47.8s84.6-17,115.5-47.8
					c1.9-1.9,3-4.5,3-7.2c0-2.7-1.1-5.3-3-7.2L193.9,198.6z M186.7,348.7c-38.2,0-74-14.9-101-41.8c-55.7-55.7-55.7-146.4,0-202.1
					C112.6,77.9,148.4,63,186.5,63c31,0,61,10.1,85.7,28.5l-99.9,99.9c-4,4-4,10.4,0,14.4l108,108
					C254.3,336.4,221.4,348.7,186.7,348.7z"/>
			</g>
		</g>
		<g>
			<g>
				<path class="st0" d="M186.5,124.1c0-16.9-13.7-30.6-30.6-30.6s-30.6,13.7-30.6,30.6s13.7,30.6,30.6,30.6S186.5,141,186.5,124.1z
					 M155.9,134.3c-5.6,0-10.2-4.6-10.2-10.2s4.6-10.2,10.2-10.2c5.6,0,10.2,4.6,10.2,10.2S161.5,134.3,155.9,134.3z"/>
			</g>
		</g>
		<g>
			<g>
				<path class="st0" d="M329.4,144.5c-28.1,0-51.1,22.9-51.1,51.1s22.9,51.1,51.1,51.1s51.1-22.9,51.1-51.1
					S357.5,144.5,329.4,144.5z M329.4,226.2c-16.9,0-30.6-13.7-30.6-30.6s13.7-30.6,30.6-30.6s30.6,13.7,30.6,30.6
					C360,212.4,346.3,226.2,329.4,226.2z"/>
			</g>
		</g>
	</g>
</g>
</svg>
