<?xml version="1.0" encoding="utf-8"?>
<!-- Generator: Adobe Illustrator 20.0.0, SVG Export Plug-In . SVG Version: 6.00 Build 0)  -->
<svg version="1.1" id="Layer_1" xmlns="http://www.w3.org/2000/svg" xmlns:xlink="http://www.w3.org/1999/xlink" x="0px" y="0px"
	 viewBox="0 0 400 400" style="enable-background:new 0 0 400 400;" xml:space="preserve">
<style type="text/css">
	.st0{fill:url(#XMLID_15_);}
	.st1{fill:#C44634;}
	.st2{fill:#D97B41;}
	.st3{fill:#308A75;}
	.st4{fill:#92A3A4;}
	.st5{fill:#D0D3D6;}
</style>
<g id="Shaded_app">
	<g id="XMLID_2_">
		<path id="XMLID_14_" d="M384.5,314.2c0,10.5-8.5,18.9-18.9,18.9H34.4c-10.4,0-18.9-8.5-18.9-18.9V67.8c0-10.4,8.5-18.9,18.9-18.9
			h331.2c10.5,0,18.9,8.5,18.9,18.9L384.5,314.2L384.5,314.2z"/>
		
			<linearGradient id="XMLID_15_" gradientUnits="userSpaceOnUse" x1="274.1477" y1="422.5891" x2="411.0235" y2="118.5761" gradientTransform="matrix(1 0 0 -1 -97.5 579)">
			<stop  offset="0" style="stop-color:#F2F2F2"/>
			<stop  offset="1" style="stop-color:#F8EFE3"/>
		</linearGradient>
		<path id="XMLID_13_" class="st0" d="M365.3,304.2c0,5.2-4,9.7-9.2,9.7H43.9c-5.2,0-9.2-4.5-9.2-9.7v-194c45,0,296,0,330.7,0V304.2
			z"/>
		<path id="XMLID_12_" class="st1" d="M55.8,81.4c0,6-4.9,10.8-10.8,10.8s-10.8-4.9-10.8-10.8c0-6,4.9-10.8,10.8-10.8
			S55.8,75.4,55.8,81.4z"/>
		<path id="XMLID_11_" class="st2" d="M84.1,81.4c0,6-4.9,10.8-10.8,10.8c-6,0-10.8-4.9-10.8-10.8c0-6,4.9-10.8,10.8-10.8
			C79.3,70.6,84.1,75.4,84.1,81.4z"/>
		<path id="XMLID_10_" class="st3" d="M112.5,81.4c0,6-4.9,10.8-10.8,10.8c-6,0-10.8-4.9-10.8-10.8c0-6,4.9-10.8,10.8-10.8
			C107.7,70.6,112.5,75.4,112.5,81.4z"/>
		<rect id="XMLID_9_" x="48.7" y="129.4" class="st4" width="104.1" height="14"/>
		<rect id="XMLID_8_" x="48.7" y="162.6" class="st5" width="198.5" height="14"/>
		<rect id="XMLID_7_" x="48.7" y="190.6" class="st5" width="198.5" height="14"/>
		<rect id="XMLID_6_" x="48.7" y="218.7" class="st5" width="198.5" height="14.8"/>
		<rect id="XMLID_5_" x="48.7" y="247.5" class="st5" width="198.5" height="14"/>
		<rect id="XMLID_4_" x="48.7" y="275.5" class="st5" width="198.5" height="14.8"/>
		<rect id="XMLID_3_" x="261.3" y="162.6" class="st5" width="90" height="127.7"/>
	</g>
</g>
</svg>
