<?xml version="1.0" encoding="utf-8"?>
<!-- Generator: Adobe Illustrator 19.2.1, SVG Export Plug-In . SVG Version: 6.00 Build 0)  -->
<svg version="1.1" id="Layer_1" xmlns="http://www.w3.org/2000/svg" xmlns:xlink="http://www.w3.org/1999/xlink" x="0px" y="0px"
	 viewBox="0 0 841.9 549.3" style="enable-background:new 0 0 841.9 549.3;" xml:space="preserve">
<style type="text/css">
	.st0{stroke:#000000;stroke-width:0.5;stroke-miterlimit:10;}
</style>
<g>
	<path class="st0" d="M35.5,525.6L35.5,525.6c5.2-0.6,12.9-2.2,12.9-8.8c0-7-9.9-8.5-15.7-8.5H12.3c-0.6,0-1.3,0-1.3,0.4
		s0.4,0.4,0.9,0.6c2.2,0.9,2.4,2.6,2.4,5.7v24.7c0,3.7-1.3,5.3-3.9,6.1c-0.6,0.2-1.1,0.2-1.1,0.6c0,0.2,0.4,0.2,1.7,0.2
		c0.9,0,1.7-0.2,2.8-0.2h7.9c5.2,0,9.4,0.2,10.7,0.2c1.5,0,4.1,0,6.4-0.4c5.5-0.6,13.1-2.9,13.1-9.9
		C51.9,527.9,41.9,525.6,35.5,525.6z M21.1,509.5h9.8c6.4,0,9.9,2.9,9.9,7.2c0,5-3.9,8.1-12.3,8.1h-7.4V509.5z M33.7,544.7h-8.3
		c-3.9,0-4.2-1.3-4.2-7.2v-11.1h10.1c4.6,0,12.5,1.8,12.5,9C43.8,541.9,39.9,544.7,33.7,544.7z"/>
	<path class="st0" d="M102.5,507.7c-0.6,0-2.4,0.2-4.6,0.2c-2.4,0-3.7-0.2-4.2-0.2c-0.6,0-0.9,0-0.9,0.2c0,0.2,0.6,0.4,1.1,0.7
		c0.7,0.4,1.5,0.7,1.5,2.4c0,0.7-0.9,2.9-2.8,5.3l-8.3,11.1L74,514.3c-0.9-1.3-1.8-2.2-1.8-3.7c0-1.1,1.1-1.8,1.8-2
		c0.6-0.2,0.9-0.4,0.9-0.6c0-0.4-0.4-0.4-0.7-0.4c-0.7,0-2.4,0.2-5.5,0.2c-3.3,0-7.4-0.2-7.7-0.2s-0.9,0.2-0.9,0.4
		c0,0.4,0.6,0.6,1.5,1.3c1.5,1.1,2.9,2.6,4.6,4.8L78.2,530v8.8c0,4.6-0.4,5.9-2.6,6.8c-0.4,0.2-0.7,0.2-0.7,0.4s0.4,0.2,0.7,0.2
		c0.6,0,2.2-0.2,6.1-0.2c3.9,0,5.5,0.2,6.1,0.2c0.4,0,0.7,0,0.7-0.2s-0.4-0.2-0.7-0.4c-2.2-0.9-2.6-2.2-2.6-6.8v-9.8l10.1-13.6
		c1.1-1.5,4.6-5.2,6.1-6.3c0.9-0.6,1.7-0.9,1.7-1.1C103.5,507.9,102.9,507.7,102.5,507.7z"/>
	<path class="st0" d="M180.6,544.9c-3.1-2.4-8.5-9.8-10.7-14c-2.6-4.6-8.7-5.9-13.4-5.7l-0.2-0.2l11.6-9.2c4.4-3.5,8.7-6.3,11.6-7.4
		c0.6-0.2,0.9-0.4,0.9-0.4c0-0.2-0.2-0.2-0.4-0.2c-0.4,0-1.8,0.2-5.5,0.2c-2.9,0-5.3-0.2-5.9-0.2c-0.4,0-0.6,0-0.6,0.2
		c0,0,0.4,0.4,0.9,0.6c0.4,0.2,0.9,0.6,0.9,1.7c0,0.9-2.9,3.9-4.1,4.8L153,526.1v-12.7c0-2.9,0.4-4.2,1.8-5c0.2-0.2,0.6-0.2,0.6-0.4
		s-0.2-0.2-0.7-0.2c-0.6,0-2.9,0.2-5.2,0.2c-2,0-4.6-0.2-5-0.2s-0.9,0.2-0.9,0.4s0.2,0.2,0.6,0.4c1.1,0.4,1.8,2,1.8,4.8v26.5
		c0,2.9-0.6,4.6-3.1,5.9c-0.4,0.2-0.6,0.4-0.6,0.6c0,0.2,0.4,0.2,0.9,0.2c2.2,0,2.9-0.2,6.3-0.2s4.1,0.2,6.3,0.2
		c0.6,0,0.9,0,0.9-0.2s-0.2-0.4-0.6-0.6c-2.8-1.3-3.1-2.9-3.1-5.9v-8.7c0-2.4,0.4-4.4,3.3-4.4c2.6,0,4.6,2.4,7.2,6.8
		c2.6,4.2,4.8,8.3,7.4,12.3c0.4,0.6,1.1,0.6,1.8,0.6c0.6,0,2.2-0.2,4.4-0.2c2,0,4.1,0.2,4.4,0.2c0.4,0,0.7-0.2,0.7-0.4
		C182.1,545.6,181.2,545.3,180.6,544.9z"/>
	<path class="st0" d="M211,506.8c-11.6,0-22.5,7.9-22.5,20.3s10.9,20.3,22.5,20.3s22.5-7.9,22.5-20.3
		C233.7,514.9,222.8,506.8,211,506.8z M211,545.8c-10.9,0-14.6-9.9-14.6-18.8c0-8.8,3.7-18.8,14.6-18.8s14.6,9.9,14.6,18.8
		S221.9,545.8,211,545.8z"/>
	<path class="st0" d="M265.9,508.1h-19.5c-0.4,0-0.6,0-0.6,0.4c0,0.2,0.2,0.2,0.7,0.4c2.2,1.1,2.4,3.3,2.4,5.9v23
		c0,5-0.6,6.6-3.1,7.9c-0.4,0.2-0.9,0.4-0.9,0.4c0,0.2,0.2,0.2,0.4,0.2c0.4,0,1.5-0.2,7.2-0.2c3.3,0,7.4,0.2,7.9,0.2
		c0.4,0,0.6-0.2,0.6-0.4c0-0.2-0.9-0.4-1.5-0.6c-2.8-1.1-3.3-2.9-3.3-5.7v-11.6c1.7,0.2,4.1,0.4,7,0.4c7.7,0,20.8-2.2,20.8-10.3
		C283.6,509.9,272,508.1,265.9,508.1z M261.7,526.8c-2.4,0-4.2,0-6.1-0.6v-16.8h7.6c5.5,0,12.3,1.8,12.3,8.1
		C275.7,523.3,270.7,526.8,261.7,526.8z"/>
	<path class="st0" d="M332.6,538.1c-3.9,3.7-10.5,6.4-15.5,6.4h-6.8c-4.1,0-5.5-0.9-5.5-5.3v-12.5h9.2c4.2,0,9,0.2,10.9,4.6
		c0.2,0.4,0.2,0.9,0.6,0.9c0.2,0,0.2-0.2,0.2-1.3v-9.8c0-0.6,0-0.9-0.2-0.9s-0.4,0.2-0.6,0.6c-0.9,2.4-4.6,4.4-9,4.4h-11.1v-15.8
		h11.1c5.5,0,12,2.2,14.4,6.3c0.2,0.4,0.6,0.6,0.7,0.6c0.2,0,0.4-0.2,0.4-0.6c0-0.7-0.4-1.7-0.6-2.2l-1.7-5.5h-33.7
		c-0.9,0-1.1,0.2-1.1,0.4s0.6,0.4,1.1,0.6c2.4,0.6,2.6,3.1,2.6,7V536c0,5.3-0.4,7-2.6,8.8c-0.4,0.4-1.7,0.7-1.7,0.9s0.4,0.2,1.8,0.2
		h36.3l2.6-8.7c0-0.2,0.2-0.4,0.2-0.6c0-0.2,0-0.2-0.2-0.2C334.1,537,333.3,537.5,332.6,538.1z"/>
	<path class="st0" d="M388,507.7h-9.8c-0.6,0-0.7,0-0.7,0.4c0,0.2,0.2,0.4,0.6,0.6c4.1,1.7,4.6,6.4,4.6,12v14.2l-26.2-26.7h-9.9
		c-0.7,0-0.9,0.2-0.9,0.4s0.4,0.4,1.1,0.7c1.7,0.7,2.9,2.2,2.9,9.9v16.8c0,3.9-0.7,8.3-4.8,10.3c-0.2,0-0.4,0.2-0.4,0.2
		s0.2,0.2,0.6,0.2h9.9c0.9,0,1.3,0,1.3-0.2s-0.4-0.2-0.7-0.4c-3.9-1.8-4.6-5.9-4.6-9.9v-23.4l31.3,34.3c0.6,0.6,0.9,1.1,1.3,1.1h0.2
		c0.2,0,0.4-0.6,0.4-0.9v-28c0-4.1,0.6-8.5,3.5-9.8c0.6-0.4,0.9-0.6,0.9-0.7S388.4,507.7,388,507.7z"/>
	<path class="st0" d="M445.9,545.6c-2.8-1.3-3.1-2.9-3.1-5.9v-26.5c0-2.4,0.7-4.4,2.6-5c0.4-0.2,0.6-0.4,0.6-0.4
		c0-0.2-0.4-0.2-0.9-0.2c-0.9,0-3.9,0.2-5.7,0.2s-4.8-0.2-5.7-0.2c-0.6,0-0.9,0-0.9,0.2c0,0,0.4,0.2,0.6,0.4c1.8,0.6,2.6,2.4,2.6,5
		v12h-22.8v-12c0-2.4,0.7-4.4,2.6-5c0.4-0.2,0.6-0.4,0.6-0.4c0-0.2-0.4-0.2-0.9-0.2c-0.9,0-3.9,0.2-5.7,0.2c-1.8,0-4.8-0.2-5.7-0.2
		c-0.6,0-0.9,0-0.9,0.2c0,0,0.4,0.2,0.6,0.4c1.8,0.6,2.6,2.4,2.6,5v26.5c0,2.9-0.6,4.6-3.1,5.9c-0.4,0.2-0.6,0.4-0.6,0.6
		c0,0.2,0.4,0.2,0.9,0.2c2.2,0,2.9-0.2,6.3-0.2s4.1,0.2,6.3,0.2c0.6,0,0.9,0,0.9-0.2s-0.2-0.4-0.6-0.6c-2.8-1.3-3.1-2.9-3.1-5.9
		v-12.9h22.7v12.9c0,2.9-0.6,4.6-3.1,5.9c-0.4,0.2-0.6,0.4-0.6,0.6c0,0.2,0.4,0.2,0.9,0.2c2.2,0,2.9-0.2,6.3-0.2s4.1,0.2,6.3,0.2
		c0.6,0,0.9,0,0.9-0.2C446.3,546,446.3,545.8,445.9,545.6z"/>
	<path class="st0" d="M500.4,545.1c-1.8-1.3-2.9-3.1-4.1-5l-17.5-32.8c-0.2-0.2-0.4-0.6-0.6-0.6h-0.2c-0.2,0-0.2,0.2-0.4,0.6
		l-14.6,28.4c-1.3,2.6-4.6,7.6-7,9.4c-0.4,0.4-1.1,0.6-1.1,0.9c0,0.2,0.2,0.4,0.7,0.4c0.7,0,2.2-0.2,4.6-0.2c3.3,0,5.3,0.2,5.9,0.2
		c0.4,0,0.7,0,0.7-0.4c0-0.2-0.2-0.4-0.7-0.4c-1.7-0.6-3.1-1.3-3.1-3.9c0-2.4,0.9-4.8,2-6.8l3.1-6.3h14.2l3.3,7
		c1.5,2.8,2.8,5.7,2.8,6.8c0,1.5-0.4,2.6-1.7,3.1c-0.6,0.2-0.7,0.2-0.7,0.6c0,0.2,0.4,0.2,0.6,0.2c0.4,0,2.4-0.2,7.2-0.2
		c3.5,0,6.3,0.2,6.6,0.2c0.6,0,0.9-0.2,0.9-0.4C501.7,545.6,501.1,545.4,500.4,545.1z M469.5,527.2l6.3-12.3l6.4,12.3H469.5z"/>
	<path class="st0" d="M550.7,526.5c-0.9,0-5,0.2-7.2,0.2c-2.6,0-7.7-0.2-8.3-0.2c-0.6,0-0.9,0-0.9,0.2c0,0.2,0.6,0.4,1.7,0.6
		c3.1,0.7,5.2,1.3,5.2,5v4.4c0,6.3-2.8,9-10.9,9c-8.5,0-14.6-8.3-14.6-17.9c0-9.8,5-19.7,16-19.7c6.3,0,12.7,2.9,14,9
		c0.2,0.4,0.4,1.1,0.4,1.1c0.2,0,0.6-1.1,0.7-1.5l2-5.2c-4.8-3.1-10.9-5-18.8-5c-11.6,0-22.5,7.9-22.5,20.3
		c0,13.6,11.4,20.3,22.5,20.3c6.8,0,13.6-1.7,17.9-5.3V532c0-2.8,0-3.9,2.9-4.8c0.6-0.2,1.1-0.4,1.1-0.6
		C551.8,526.7,551.4,526.5,550.7,526.5z"/>
	<path class="st0" d="M601.2,538.1c-3.9,3.7-10.5,6.4-15.5,6.4h-6.8c-4.1,0-5.5-0.9-5.5-5.3v-12.5h9.2c4.2,0,9,0.2,10.9,4.6
		c0.2,0.4,0.2,0.9,0.6,0.9c0.2,0,0.2-0.2,0.2-1.3v-9.8c0-0.6,0-0.9-0.2-0.9s-0.4,0.2-0.6,0.6c-0.9,2.4-4.6,4.4-9,4.4h-11.1v-15.8
		h10.9c5.5,0,12,2.2,14.4,6.3c0.2,0.4,0.6,0.6,0.7,0.6c0.2,0,0.4-0.2,0.4-0.6c0-0.7-0.4-1.7-0.6-2.2l-1.7-5.5H564
		c-0.9,0-1.1,0.2-1.1,0.4s0.6,0.4,1.1,0.6c2.4,0.6,2.6,3.1,2.6,7V536c0,5.3-0.4,7-2.6,8.8c-0.4,0.4-1.7,0.7-1.7,0.9s0.4,0.2,1.8,0.2
		h36.3l2.6-8.7c0-0.2,0.2-0.4,0.2-0.6c0-0.2,0-0.2-0.2-0.2C602.6,537,601.9,537.5,601.2,538.1z"/>
	<path class="st0" d="M656.6,507.7h-9.8c-0.6,0-0.7,0-0.7,0.4c0,0.2,0.2,0.4,0.6,0.6c4.1,1.7,4.6,6.4,4.6,12v14.2l-26.2-26.7h-9.9
		c-0.7,0-0.9,0.2-0.9,0.4s0.4,0.4,1.1,0.7c1.7,0.7,2.9,2.2,2.9,9.9v16.8c0,3.9-0.7,8.3-4.8,10.3c-0.2,0-0.4,0.2-0.4,0.2
		s0.2,0.2,0.6,0.2h9.9c0.9,0,1.3,0,1.3-0.2s-0.4-0.2-0.7-0.4c-3.9-1.8-4.6-5.9-4.6-9.9v-23.4l31.3,34.3c0.6,0.6,0.9,1.1,1.3,1.1h0.2
		c0.2,0,0.4-0.6,0.4-0.9v-28c0-4.1,0.6-8.5,3.5-9.8c0.6-0.4,0.9-0.6,0.9-0.7S657,507.7,656.6,507.7z"/>
	<path class="st0" d="M729.2,508.1h-33c-0.7,0-0.9,0.2-0.9,0.2c0,0.2,0.6,0.4,0.9,0.6c1.7,0.7,2,2.6,2,5.9v23.6
		c0,4.4-0.7,6.1-3.1,7.4c-0.4,0.2-0.9,0.4-0.9,0.6c0,0.2,0.2,0.2,0.6,0.2c0.4,0,3.7-0.2,7-0.2s7.2,0.2,7.4,0.2s0.4,0,0.4-0.2
		s-0.6-0.4-1.3-0.6c-2.4-0.7-3.1-4.8-3.1-10.3v-8.7h9.2c4.2,0,8.8,0.9,10.5,3.9c0.2,0.4,0.4,1.1,0.7,1.1c0.2,0,0.2-0.2,0.2-0.6
		v-10.1c0-0.6-0.2-0.7-0.4-0.7c-0.2,0-0.4,0.2-0.4,0.6c-0.7,2.4-4.4,4.4-8.8,4.4h-11.1v-15.8h10.9c5.5,0,11.2,2.2,14.7,6.1
		c0.2,0.4,0.6,0.7,0.7,0.7c0.2,0,0.2-0.2,0.2-0.4s-0.6-1.7-0.7-2.2L729.2,508.1z"/>
	<path class="st0" d="M783.5,507.7c-0.7,0-2.4,0.2-5,0.2c-2.8,0-3.3-0.2-5-0.2c-0.2,0-0.6,0-0.6,0.2c0,0.2,0.4,0.4,0.7,0.6
		c2.4,1.3,4.1,4.1,4.1,9.9v12.5c0,10.1-4.2,14.7-14.2,14.7c-7.2,0-12.7-3.9-12.7-11.4V513c0-2.4,0.7-4.4,2.6-5
		c0.4-0.2,0.6-0.4,0.6-0.4c0-0.2-0.4-0.2-0.9-0.2c-0.9,0-3.9,0.2-5.7,0.2s-4.8-0.2-5.7-0.2c-0.6,0-0.9,0-0.9,0.2
		c0,0,0.4,0.2,0.6,0.4c1.8,0.6,2.6,2.4,2.6,5v21.6c0,10.9,9.2,12.9,18.4,12.9c11.4,0,16.9-4.8,16.9-16.4v-12.3
		c0-6.1,2.2-8.7,4.1-9.8c0.6-0.4,0.9-0.7,0.9-0.7C784.4,507.9,784.1,507.7,783.5,507.7z"/>
	<path class="st0" d="M838.2,545.3c-1.8-0.7-4.1-5.9-5.3-9.9c-2-6.3-7.7-8.3-13.8-9v-0.2c6.3,0,16-1.1,16-9.2
		c0-5.3-4.6-8.8-15.7-8.8h-22.3c-0.9,0-1.1,0.2-1.1,0.4c0,0.4,0.6,0.4,1.3,0.7c2.4,0.9,2.4,3.9,2.4,5.7v25.1c0,2.9-0.6,4.6-2.8,5.9
		c-0.6,0.2-0.9,0.4-0.9,0.6c0,0.2,0.2,0.2,0.6,0.2h13.3c0.6,0,0.7,0,0.7-0.2s-0.2-0.2-0.9-0.6c-2.2-0.9-2.9-2.9-2.9-5.9v-13.1
		l8.7,0.2c7.4,0.2,8.5,4.2,11.1,11.4l2.9,7.7h7.9c2,0,2.2,0,2.2-0.2C839.3,545.8,838.8,545.6,838.2,545.3z M806.5,525.2v-15.7h11.2
		c6.3,0,9.4,3.1,9.4,7.6c0,4.1-3.3,8.1-9.8,8.1H806.5z"/>
	<path class="st0" d="M601.5,127.1c46.4,0,86.2,23.9,86.2,116.8v107c0,18.1-2.8,37.2-18.1,47.5c-4.4,2.8-9.2,3.3-9.2,6.1
		c0,2.2,1.7,2.2,3.9,2.2c7.7,0,27.8-1.1,45.3-1.1s37.8,1.1,43.7,1.1c2.2,0,5.5-0.6,5.5-2.2c0-1.1-4.4-2.8-10.3-6.1
		c-13.1-6.6-16.9-29.5-16.9-72.6v-107c0-78.7-61.7-105.4-119-105.4c-49.2,0-90.1,24.5-108.1,70.9h-1.7V9.6l-60,17.5
		c-1.7,0-5,2.2-5,3.3c0,2.2,2.8,2.8,5,3.3c15.3,2.8,19.7,14.7,19.7,29.5v287.7c0,18.1-2.8,36.7-19.7,46.4c-5.5,3.3-10.3,5-10.3,6.6
		c0,2.2,2.2,2.8,5,2.8c9.2,0,29.5-1.1,45.3-1.1c15.8,0,36.1,1.1,45.3,1.1c2.8,0,4.4,0,4.4-1.7c0-1.1-4.4-3.3-9.8-6.6
		C505.8,387.6,503,369,503,329.2v-84C502.6,180.5,543.1,127.1,601.5,127.1z"/>
	<path class="st0" d="M358.8,61.9C286.9-9.9,161.1-26.3,69,66c-93.9,93.9-77.5,219.7-5.7,291.6s197.6,88.2,291.6-5.7
		C447,259.6,430.6,133.6,358.8,61.9z M310.1,314.6c-75.5,75.5-164.9,106.1-237.6,33.5C-0.1,275.6,30.3,186.3,106,110.6
		C187.8,28.8,277.2-1.6,349.7,70.9C422.3,143.7,391.7,232.9,310.1,314.6z"/>
	<path class="st0" d="M812.3,43.1c-26.2,0-27.8,53-27.8,69.8c0,28.9,8.7,82.5,13.1,108.7c7.2,43.1,9.2,62.8,9.2,107.6h10.9
		c0-44.8,2.2-64.5,9.2-107.6c4.4-26.2,13.1-79.8,13.1-108.7C840.1,96.2,838.4,43.1,812.3,43.1z"/>
	<path class="st0" d="M812.3,357.2c-15.3,0-26.7,12.5-26.7,26.7c0,14.2,11.4,26.2,26.7,26.2s26.2-12,26.2-26.2
		C838.4,369.7,827.5,357.2,812.3,357.2z"/>
</g>
</svg>
